<svg xmlns="http://www.w3.org/2000/svg" viewBox="0 0 24 24" fill="currentColor">
  <path d="M12 8a4 4 0 100 8 4 4 0 000-8zm-9.95 3.438a1 1 0 010 1.124C2.95 14.56 3 16.08 3 16.08v.01a1 1 0 001 1h.09a1.65 1.65 0 011.51 1 1.65 1.65 0 01-.33 1.82l-.06.06a1 1 0 101.41 1.41l.06-.06a1.65 1.65 0 011.82-.33 1.65 1.65 0 011 1.51V22a1 1 0 002 0v-.09a1.65 1.65 0 011-1.51 1.65 1.65 0 011.82.33l.06.06a1 1 0 001.41-1.41l-.06-.06a1.65 1.65 0 01-.33-1.82 1.65 1.65 0 011.51-1H21a1 1 0 000-2h-.09a1.65 1.65 0 01-1.51-1 1.65 1.65 0 01.33-1.82l.06-.06a1 1 0 00-1.41-1.41l-.06.06a1.65 1.65 0 01-1.82.33 1.65 1.65 0 01-1-1.51V3a1 1 0 00-2 0v.09a1.65 1.65 0 01-1 1.51 1.65 1.65 0 01-1.82-.33l-.06-.06a1 1 0 00-1.41 1.41l.06.06a1.65 1.65 0 01.33 1.82 1.65 1.65 0 01-1.51 1H3a1 1 0 000 2h.09a1.65 1.65 0 011.51 1z"/>
</svg>
